<?xml version="1.0" encoding="UTF-8" standalone="no"?>
<!-- Created with Inkscape (http://www.inkscape.org/) -->

<svg
   xmlns:dc="http://purl.org/dc/elements/1.1/"
   xmlns:cc="http://creativecommons.org/ns#"
   xmlns:rdf="http://www.w3.org/1999/02/22-rdf-syntax-ns#"
   xmlns:svg="http://www.w3.org/2000/svg"
   xmlns="http://www.w3.org/2000/svg"
   xmlns:sodipodi="http://sodipodi.sourceforge.net/DTD/sodipodi-0.dtd"
   xmlns:inkscape="http://www.inkscape.org/namespaces/inkscape"
   width="610.5"
   height="662.59979"
   id="svg2"
   sodipodi:version="0.32"
   inkscape:version="0.48.2 r9819"
   sodipodi:docname="principle_data_support.svg"
   inkscape:output_extension="org.inkscape.output.svg.inkscape"
   version="1.1">
  <defs
     id="defs4">
    <marker
       inkscape:stockid="Arrow2Lend"
       orient="auto"
       refY="0"
       refX="0"
       id="Arrow2Lend"
       style="overflow:visible">
      <path
         id="path3230"
         style="font-size:12px;fill-rule:evenodd;stroke-width:0.625;stroke-linejoin:round"
         d="M 8.7185878,4.0337352 -2.2072895,0.01601326 8.7185884,-4.0017078 c -1.7454984,2.3720609 -1.7354408,5.6174519 -6e-7,8.035443 z"
         transform="matrix(-1.1,0,0,-1.1,-1.1,0)"
         inkscape:connector-curvature="0" />
    </marker>
    <marker
       inkscape:stockid="Arrow1Lstart"
       orient="auto"
       refY="0"
       refX="0"
       id="Arrow1Lstart"
       style="overflow:visible">
      <path
         id="path3209"
         d="M 0,0 5,-5 -12.5,0 5,5 0,0 z"
         style="fill-rule:evenodd;stroke:#000000;stroke-width:1pt;marker-start:none"
         transform="matrix(0.8,0,0,0.8,10,0)"
         inkscape:connector-curvature="0" />
    </marker>
    <marker
       inkscape:stockid="Arrow1Lend"
       orient="auto"
       refY="0"
       refX="0"
       id="Arrow1Lend"
       style="overflow:visible">
      <path
         id="path3212"
         d="M 0,0 5,-5 -12.5,0 5,5 0,0 z"
         style="fill-rule:evenodd;stroke:#000000;stroke-width:1pt;marker-start:none"
         transform="matrix(-0.8,0,0,-0.8,-10,0)"
         inkscape:connector-curvature="0" />
    </marker>
  </defs>
  <sodipodi:namedview
     id="base"
     pagecolor="#ffffff"
     bordercolor="#666666"
     borderopacity="1.0"
     gridtolerance="10000"
     guidetolerance="10"
     objecttolerance="10"
     inkscape:pageopacity="0.0"
     inkscape:pageshadow="2"
     inkscape:zoom="0.82576133"
     inkscape:cx="262.54724"
     inkscape:cy="272.1811"
     inkscape:document-units="px"
     inkscape:current-layer="layer1"
     showgrid="true"
     showguides="false"
     inkscape:window-width="1920"
     inkscape:window-height="1028"
     inkscape:window-x="0"
     inkscape:window-y="26"
     fit-margin-top="0"
     fit-margin-left="0"
     fit-margin-right="0"
     fit-margin-bottom="0"
     inkscape:window-maximized="1" />
  <metadata
     id="metadata7">
    <rdf:RDF>
      <cc:Work
         rdf:about="">
        <dc:format>image/svg+xml</dc:format>
        <dc:type
           rdf:resource="http://purl.org/dc/dcmitype/StillImage" />
      </cc:Work>
    </rdf:RDF>
  </metadata>
  <g
     inkscape:label="Layer 1"
     inkscape:groupmode="layer"
     id="layer1"
     transform="translate(-109.5,-135.7624)">
    <rect
       style="fill:#ffffff;fill-opacity:0.55900622;stroke:#000000;stroke-width:0.96257323;stroke-opacity:1"
       id="rect2190"
       width="100.60773"
       height="519.03741"
       x="258.91098"
       y="212.84348" />
    <g
       id="g3200"
       transform="translate(597.25,142.71875)">
      <path
         id="path3170"
         d="m -158.625,152.86218 c -98.32899,0 -178.12499,79.82726 -178.125,178.15625 0,98.32899 79.79601,178.12499 178.125,178.125 98.328987,0 178.125,-79.79602 178.125,-178.125 0,-98.32899 -79.796014,-178.15624 -178.125,-178.15625 z m 0,83.9375 c 52.00688,0 94.21875,42.21187 94.21875,94.21875 0,52.00688 -42.21187,94.1875 -94.21875,94.1875 -52.00688,0 -94.21875,-42.18062 -94.21875,-94.1875 0,-52.00688 42.21187,-94.21875 94.21875,-94.21875 z"
         style="color:#000000;fill:#ffff00;fill-opacity:0.26111115;fill-rule:evenodd;stroke:#000000;stroke-width:1;stroke-linecap:butt;stroke-linejoin:miter;stroke-miterlimit:4;stroke-opacity:1;stroke-dasharray:4, 4;stroke-dashoffset:0;marker:none;visibility:visible;display:inline;overflow:visible;enable-background:accumulate"
         inkscape:connector-curvature="0" />
      <path
         id="path2170"
         d="m -160.5,172.86218 c -88.33134,0 -160.03125,71.69994 -160.03125,160.03125 0,88.33134 71.69992,160.03125 160.03125,160.03125 88.331337,0 159.999999,-71.69989 160,-160.03125 0,-88.33134 -71.668658,-160.03125 -160,-160.03125 z m 0,46.125 c 62.8734,1e-5 113.875,51.03286 113.875,113.90625 -10e-7,62.87342 -51.001605,113.90625 -113.875,113.90625 -62.87339,-2e-5 -113.90625,-51.03286 -113.90625,-113.90625 0,-62.87337 51.03286,-113.90625 113.90625,-113.90625 z"
         style="color:#000000;fill:#ff0000;fill-opacity:1;fill-rule:evenodd;stroke:#000000;stroke-width:1px;stroke-linecap:butt;stroke-linejoin:miter;stroke-miterlimit:4;stroke-opacity:1;stroke-dasharray:none;stroke-dashoffset:0;marker:none;visibility:visible;display:inline;overflow:visible;enable-background:accumulate"
         inkscape:connector-curvature="0" />
    </g>
    <rect
       style="fill:#ffffff;fill-opacity:0.55900622;stroke:#000000;stroke-width:1;stroke-opacity:1"
       id="rect3168"
       width="100.57031"
       height="560.39307"
       x="432.46509"
       y="-92.341568"
       transform="matrix(0.8660254,0.5,-0.5,0.8660254,0,0)" />
    <path
       style="fill:none;stroke:#000000;stroke-width:0.88381559px;stroke-linecap:butt;stroke-linejoin:miter;stroke-opacity:1;marker-end:url(#Arrow1Lend)"
       d="m 579.55809,261.71867 c -43.42881,41.97887 -12.98822,75.52916 -73.6576,96.35738"
       id="path3404"
       sodipodi:nodetypes="cc"
       inkscape:connector-curvature="0" />
    <text
       xml:space="preserve"
       style="font-size:12px;font-style:normal;font-weight:normal;fill:#000000;fill-opacity:1;stroke:none;font-family:Bitstream Vera Sans"
       x="581.35938"
       y="266.03796"
       id="text3408"><tspan
         sodipodi:role="line"
         id="tspan3410"
         x="581.35938"
         y="266.03796"
         style="font-size:18px">Object </tspan></text>
    <path
       style="fill:none;stroke:#000000;stroke-width:1.00186229px;stroke-linecap:butt;stroke-linejoin:miter;stroke-opacity:1;marker-end:url(#Arrow1Lend)"
       d="m 599.49907,729.69631 c -55.66436,-42.08469 -16.6475,-75.71955 -94.40976,-96.60028"
       id="path3412"
       sodipodi:nodetypes="cc"
       inkscape:connector-curvature="0" />
    <text
       xml:space="preserve"
       style="font-size:12px;font-style:normal;font-weight:normal;fill:#000000;fill-opacity:1;stroke:none;font-family:Bitstream Vera Sans"
       x="525.99023"
       y="746.03796"
       id="text3414"><tspan
         sodipodi:role="line"
         id="tspan3416"
         x="525.99023"
         y="746.03796"
         style="font-size:18px">Region of data suport</tspan></text>
    <g
       id="g3008"
       transform="translate(10,26)">
      <rect
         transform="matrix(0.8660254,-0.5,0.5,0.8660254,0,0)"
         y="308.40747"
         x="-38.917717"
         height="560.39307"
         width="100.57031"
         id="rect3166"
         style="fill:#ffffff;fill-opacity:0.55900622;stroke:#000000;stroke-width:1;stroke-opacity:1" />
      <g
         id="g3003">
        <path
           style="fill:none;stroke:#000000;stroke-width:1px;stroke-linecap:butt;stroke-linejoin:miter;stroke-opacity:1;marker-start:url(#Arrow1Lstart);marker-end:url(#Arrow1Lend)"
           d="m 100,272.36218 100,-60"
           id="path3418"
           inkscape:connector-curvature="0"
           sodipodi:nodetypes="cc" />
        <text
           xml:space="preserve"
           style="font-size:12px;font-style:normal;font-weight:normal;fill:#000000;fill-opacity:1;stroke:none;font-family:Bitstream Vera Sans"
           x="138.4707"
           y="232.1073"
           id="text3424"><tspan
             sodipodi:role="line"
             id="tspan3426"
             x="138.4707"
             y="232.1073"
             style="font-size:18px">u</tspan></text>
      </g>
    </g>
  </g>
</svg>
