<?xml version="1.0" encoding="UTF-8" standalone="no"?>
<!DOCTYPE svg PUBLIC "-//W3C//DTD SVG 1.0//EN"
 "http://www.w3.org/TR/2001/REC-SVG-20010904/DTD/svg10.dtd" [
 <!ATTLIST svg xmlns:xlink CDATA #FIXED "http://www.w3.org/1999/xlink">
]>
<!-- Generated by dot version 2.8 (Fri Apr 13 20:03:34 UTC 2007)
     For user: (kaestner) Anders Kaestner -->
<!-- Title: g Pages: 1 -->
<svg width="428pt" height="332pt"
 viewBox = "0 0 428 332"
 xmlns="http://www.w3.org/2000/svg" xmlns:xlink="http://www.w3.org/1999/xlink">
<g id="graph0" class="graph" style="font-family:Times-Roman;font-size:14.00;">
<title>g</title>
<polygon style="fill:white;stroke:white;" points="-2,334 -2,-2 430,-2 430,334 -2,334"/>
<!-- 0.0 -->
<g id="node1" class="node"><title>0.0</title>
<text text-anchor="middle" x="211" y="27">0.0</text>
</g>
<!-- 45.0 -->
<g id="node3" class="node"><title>45.0</title>
<text text-anchor="middle" x="211" y="99">45.0</text>
</g>
<!-- 0.0&#45;&gt;45.0 -->
<g id="edge2" class="edge"><title>0.0&#45;&gt;45.0</title>
<path style="fill:none;stroke:black;" d="M211,40C211,48 211,57 211,66"/>
<polygon style="fill:black;stroke:black;" points="215,66 211,76 208,66 215,66"/>
</g>
<!-- 22.5 -->
<g id="node5" class="node"><title>22.5</title>
<text text-anchor="middle" x="175" y="171">22.5</text>
</g>
<!-- 45.0&#45;&gt;22.5 -->
<g id="edge4" class="edge"><title>45.0&#45;&gt;22.5</title>
<path style="fill:none;stroke:black;" d="M202,112C198,120 193,130 188,139"/>
<polygon style="fill:black;stroke:black;" points="191,140 184,148 185,137 191,140"/>
</g>
<!-- 67.5 -->
<g id="node7" class="node"><title>67.5</title>
<text text-anchor="middle" x="247" y="171">67.5</text>
</g>
<!-- 45.0&#45;&gt;67.5 -->
<g id="edge6" class="edge"><title>45.0&#45;&gt;67.5</title>
<path style="fill:none;stroke:black;" d="M220,112C224,120 229,130 234,139"/>
<polygon style="fill:black;stroke:black;" points="237,137 238,148 231,140 237,137"/>
</g>
<!-- 11.25 -->
<g id="node9" class="node"><title>11.25</title>
<text text-anchor="middle" x="103" y="243">11.25</text>
</g>
<!-- 22.5&#45;&gt;11.25 -->
<g id="edge8" class="edge"><title>22.5&#45;&gt;11.25</title>
<path style="fill:none;stroke:black;" d="M157,184C148,193 138,203 128,213"/>
<polygon style="fill:black;stroke:black;" points="131,215 121,220 126,210 131,215"/>
</g>
<!-- 33.75 -->
<g id="node13" class="node"><title>33.75</title>
<text text-anchor="middle" x="175" y="243">33.75</text>
</g>
<!-- 22.5&#45;&gt;33.75 -->
<g id="edge12" class="edge"><title>22.5&#45;&gt;33.75</title>
<path style="fill:none;stroke:black;" d="M175,184C175,192 175,201 175,210"/>
<polygon style="fill:black;stroke:black;" points="179,210 175,220 172,210 179,210"/>
</g>
<!-- 56.25 -->
<g id="node11" class="node"><title>56.25</title>
<text text-anchor="middle" x="247" y="243">56.25</text>
</g>
<!-- 67.5&#45;&gt;56.25 -->
<g id="edge10" class="edge"><title>67.5&#45;&gt;56.25</title>
<path style="fill:none;stroke:black;" d="M247,184C247,192 247,201 247,210"/>
<polygon style="fill:black;stroke:black;" points="251,210 247,220 244,210 251,210"/>
</g>
<!-- 78.75 -->
<g id="node15" class="node"><title>78.75</title>
<text text-anchor="middle" x="319" y="243">78.75</text>
</g>
<!-- 67.5&#45;&gt;78.75 -->
<g id="edge14" class="edge"><title>67.5&#45;&gt;78.75</title>
<path style="fill:none;stroke:black;" d="M265,184C274,193 284,203 294,213"/>
<polygon style="fill:black;stroke:black;" points="296,210 301,220 291,215 296,210"/>
</g>
<!-- 5.625 -->
<g id="node17" class="node"><title>5.625</title>
<text text-anchor="middle" x="31" y="315">5.625</text>
</g>
<!-- 11.25&#45;&gt;5.625 -->
<g id="edge16" class="edge"><title>11.25&#45;&gt;5.625</title>
<path style="fill:none;stroke:black;" d="M85,256C76,265 66,275 56,285"/>
<polygon style="fill:black;stroke:black;" points="59,287 49,292 54,282 59,287"/>
</g>
<!-- 16.875 -->
<g id="node19" class="node"><title>16.875</title>
<text text-anchor="middle" x="103" y="315">16.875</text>
</g>
<!-- 11.25&#45;&gt;16.875 -->
<g id="edge18" class="edge"><title>11.25&#45;&gt;16.875</title>
<path style="fill:none;stroke:black;" d="M103,256C103,264 103,273 103,282"/>
<polygon style="fill:black;stroke:black;" points="107,282 103,292 100,282 107,282"/>
</g>
<!-- 28.125 -->
<g id="node21" class="node"><title>28.125</title>
<text text-anchor="middle" x="175" y="315">28.125</text>
</g>
<!-- 33.75&#45;&gt;28.125 -->
<g id="edge20" class="edge"><title>33.75&#45;&gt;28.125</title>
<path style="fill:none;stroke:black;" d="M175,256C175,264 175,273 175,282"/>
<polygon style="fill:black;stroke:black;" points="179,282 175,292 172,282 179,282"/>
</g>
<!-- 39.375 -->
<g id="node23" class="node"><title>39.375</title>
<text text-anchor="middle" x="247" y="315">39.375</text>
</g>
<!-- 33.75&#45;&gt;39.375 -->
<g id="edge22" class="edge"><title>33.75&#45;&gt;39.375</title>
<path style="fill:none;stroke:black;" d="M193,256C202,265 212,275 222,285"/>
<polygon style="fill:black;stroke:black;" points="224,282 229,292 219,287 224,282"/>
</g>
<!-- level I -->
<g id="node24" class="node"><title>level I</title>
<text text-anchor="middle" x="394" y="27">level I</text>
</g>
<!-- level II -->
<g id="node26" class="node"><title>level II</title>
<text text-anchor="middle" x="394" y="99">level II</text>
</g>
<!-- level I&#45;&gt;level II -->
<g id="edge24" class="edge"><title>level I&#45;&gt;level II</title>
<path style="fill:none;stroke:black;" d="M394,40C394,48 394,57 394,66"/>
<polygon style="fill:black;stroke:black;" points="398,66 394,76 391,66 398,66"/>
</g>
<!-- level III -->
<g id="node27" class="node"><title>level III</title>
<text text-anchor="middle" x="394" y="171">level III</text>
</g>
<!-- level II&#45;&gt;level III -->
<g id="edge25" class="edge"><title>level II&#45;&gt;level III</title>
<path style="fill:none;stroke:black;" d="M394,112C394,120 394,129 394,138"/>
<polygon style="fill:black;stroke:black;" points="398,138 394,148 391,138 398,138"/>
</g>
<!-- level IV -->
<g id="node28" class="node"><title>level IV</title>
<text text-anchor="middle" x="394" y="243">level IV</text>
</g>
<!-- level III&#45;&gt;level IV -->
<g id="edge26" class="edge"><title>level III&#45;&gt;level IV</title>
<path style="fill:none;stroke:black;" d="M394,184C394,192 394,201 394,210"/>
<polygon style="fill:black;stroke:black;" points="398,210 394,220 391,210 398,210"/>
</g>
<!-- level V -->
<g id="node29" class="node"><title>level V</title>
<text text-anchor="middle" x="394" y="315">level V</text>
</g>
<!-- level IV&#45;&gt;level V -->
<g id="edge27" class="edge"><title>level IV&#45;&gt;level V</title>
<path style="fill:none;stroke:black;" d="M394,256C394,264 394,273 394,282"/>
<polygon style="fill:black;stroke:black;" points="398,282 394,292 391,282 398,282"/>
</g>
</g>
</svg>
