<?xml version="1.0" encoding="UTF-8" standalone="no"?>
<!-- Created with Inkscape (http://www.inkscape.org/) -->

<svg
   xmlns:dc="http://purl.org/dc/elements/1.1/"
   xmlns:cc="http://creativecommons.org/ns#"
   xmlns:rdf="http://www.w3.org/1999/02/22-rdf-syntax-ns#"
   xmlns:svg="http://www.w3.org/2000/svg"
   xmlns="http://www.w3.org/2000/svg"
   xmlns:xlink="http://www.w3.org/1999/xlink"
   xmlns:sodipodi="http://sodipodi.sourceforge.net/DTD/sodipodi-0.dtd"
   xmlns:inkscape="http://www.inkscape.org/namespaces/inkscape"
   inkscape:version="0.48.2 r9819"
   version="1.1"
   id="svg2"
   height="250"
   width="250"
   sodipodi:docname="RT2D_icon.svg"
   inkscape:export-filename="/Users/kaestner/repos/roots/trunk/src/RootTracker2D/figures/RT2D_icon.png"
   inkscape:export-xdpi="100"
   inkscape:export-ydpi="100">
  <sodipodi:namedview
     id="base"
     pagecolor="#ffffff"
     bordercolor="#666666"
     borderopacity="1.0"
     inkscape:pageopacity="0.0"
     inkscape:pageshadow="2"
     inkscape:zoom="2.552"
     inkscape:cx="125"
     inkscape:cy="125"
     inkscape:document-units="px"
     inkscape:current-layer="svg2"
     showgrid="false"
     inkscape:window-width="1392"
     inkscape:window-height="856"
     inkscape:window-x="48"
     inkscape:window-y="0"
     inkscape:window-maximized="1" />
  <defs
     id="defs4">
    <linearGradient
       id="linearGradient3920">
      <stop
         style="stop-color:#000055;stop-opacity:0.67521369;"
         offset="0"
         id="stop3922" />
      <stop
         style="stop-color:#000000;stop-opacity:0;"
         offset="1"
         id="stop3924" />
    </linearGradient>
    <linearGradient
       inkscape:collect="always"
       id="linearGradient3876">
      <stop
         style="stop-color:#000000;stop-opacity:1;"
         offset="0"
         id="stop3878" />
      <stop
         style="stop-color:#000000;stop-opacity:0;"
         offset="1"
         id="stop3880" />
    </linearGradient>
    <radialGradient
       inkscape:collect="always"
       xlink:href="#linearGradient3876"
       id="radialGradient3882"
       cx="164.18204"
       cy="159.92113"
       fx="164.18204"
       fy="159.92113"
       r="75.201807"
       gradientTransform="matrix(1,0,0,0.99430601,-97.178683,-13.93257)"
       gradientUnits="userSpaceOnUse" />
    <radialGradient
       inkscape:collect="always"
       xlink:href="#linearGradient3876-7"
       id="radialGradient3882-3"
       cx="164.18204"
       cy="159.92113"
       fx="164.18204"
       fy="159.92113"
       r="75.201805"
       gradientTransform="matrix(1,0,0,0.99430601,-97.178683,-13.93257)"
       gradientUnits="userSpaceOnUse" />
    <linearGradient
       inkscape:collect="always"
       id="linearGradient3876-7">
      <stop
         style="stop-color:#000000;stop-opacity:1;"
         offset="0"
         id="stop3878-4" />
      <stop
         style="stop-color:#000000;stop-opacity:0;"
         offset="1"
         id="stop3880-8" />
    </linearGradient>
    <radialGradient
       r="75.201805"
       fy="159.92113"
       fx="164.18204"
       cy="159.92113"
       cx="164.18204"
       gradientTransform="matrix(1,0,0,0.99430601,-97.552028,15.08588)"
       gradientUnits="userSpaceOnUse"
       id="radialGradient3899"
       xlink:href="#linearGradient3876-7"
       inkscape:collect="always" />
    <radialGradient
       inkscape:collect="always"
       xlink:href="#linearGradient3920"
       id="radialGradient3926"
       cx="76.793953"
       cy="141.29788"
       fx="76.793953"
       fy="141.29788"
       r="56.926335"
       gradientTransform="matrix(-1.6676056,-0.26678843,0.36194641,-1.7084641,170.53014,385.96922)"
       gradientUnits="userSpaceOnUse" />
  </defs>
  <metadata
     id="metadata7">
    <rdf:RDF>
      <cc:Work
         rdf:about="">
        <dc:format>image/svg+xml</dc:format>
        <dc:type
           rdf:resource="http://purl.org/dc/dcmitype/StillImage" />
        <dc:title></dc:title>
      </cc:Work>
    </rdf:RDF>
  </metadata>
  <rect
     style="fill:#323232;stroke:#969696;stroke-width:0.20000000000000001;stroke-linecap:butt;stroke-linejoin:miter;stroke-miterlimit:4;stroke-opacity:1;stroke-dasharray:none;stroke-dashoffset:0;fill-opacity:1"
     id="rect3928"
     width="112.46082"
     height="250.78369"
     x="137.93103"
     y="0.39184833" />
  <g
     transform="translate(0,-802.36218)"
     id="layer1"
     inkscape:groupmode="layer"
     inkscape:label="Layer 1" />
  <path
     id="path3095"
     d="m 138.46298,64.939589 0,39.846851 10.81424,23.1265 16.49743,15.39199 20.7176,2.10318 c 0,0 1.28307,-0.7973 19.22571,-4.91754 l 4.89628,-2.62889 2.64145,-3.11388 3.38155,-1.50908 -3.38155,1.50908 -2.64145,3.11388 4.21326,-0.6666 3.52231,1.19258 2.00308,2.42522 -2.00308,-2.42522 -3.52231,-1.19258 -4.21326,0.6666 -4.89628,2.62889 5.31876,2.6623 4.3693,0.24035 3.26362,1.41902 -3.26362,-1.41902 -4.3693,-0.24035 2.97681,3.84424 4.3286,1.55539 -4.3286,-1.55539 0.29315,2.93255 -0.29315,-2.93255 -2.97681,-3.84424 -5.31876,-2.6623 c -17.241,4.33307 -0.12817,0.58394 -19.22571,4.91754 l 12.21367,8.63484 11.49355,2.87914 9.56778,-1.96243 4.20981,-3.08771 1.0196,-2.89795 -1.0196,2.89795 4.29342,-0.48456 2.41248,-1.8709 -2.41248,1.8709 2.76832,1.37971 -2.76832,-1.37971 -4.29342,0.48456 -4.20981,3.08771 5.48249,0.81223 3.90297,-1.8958 1.42739,-2.98365 -1.42739,2.98365 -3.90297,1.8958 3.90225,2.72694 3.69726,0.2869 2.8654,-1.21674 -2.8654,1.21674 -3.69726,-0.2869 -3.90225,-2.72694 -5.48249,-0.81223 -9.56778,1.96243 3.78454,4.11467 4.269,1.55623 3.66935,-0.48679 3.0962,0.76824 -3.0962,-0.76824 -3.66935,0.48679 2.09317,2.01822 -2.09317,-2.01822 -4.269,-1.55623 1.29066,4.10398 2.44299,2.5613 0.34499,2.73411 -0.34499,-2.73411 -2.44299,-2.5613 -1.29066,-4.10398 -3.78454,-4.11467 -11.49355,-2.87914 4.50508,11.39431 7.75731,6.4336 7.14686,0.50801 5.43309,-1.53033 3.14234,-2.46703 1.14819,-2.70353 -1.14819,2.70353 -3.14234,2.46703 4.30311,0.60135 -4.30311,-0.60135 -5.43309,1.53033 4.04085,3.30649 3.38724,0.27022 -3.38724,-0.27022 1.4989,3.11248 -1.4989,-3.11248 -4.04085,-3.30649 -7.14686,-0.50801 1.03681,7.10628 2.15589,3.51441 -2.15589,-3.51441 -1.40405,4.30888 0.81278,2.86069 -0.81278,-2.86069 -1.89266,2.2773 1.89266,-2.2773 1.40405,-4.30888 -1.03681,-7.10628 -7.75731,-6.4336 -3.76806,8.83075 1.54855,5.78579 2.9665,3.07928 3.53875,1.05661 3.15065,-0.87286 -3.15065,0.87286 -3.53875,-1.05661 1.22486,3.28963 -1.22486,-3.28963 -2.9665,-3.07928 -0.82739,3.30719 -1.70951,2.28476 1.70951,-2.28476 0.82739,-3.30719 -1.54855,-5.78579 -5.36754,5.40765 -0.39887,4.20166 1.55598,2.86701 2.74814,1.4225 -2.74814,-1.4225 -1.55598,-2.86701 -2.94145,2.70223 2.94145,-2.70223 0.39887,-4.20166 -5.339,1.90864 -2.22413,2.59158 2.22413,-2.59158 -4.03105,-0.61596 -2.67298,-1.52807 2.67298,1.52807 4.03105,0.61596 5.339,-1.90864 5.36754,-5.40765 3.76806,-8.83075 -4.50508,-11.39431 -12.21367,-8.63484 -20.7176,-2.10318 5.06222,10.95738 7.47575,3.6224 5.82107,0.39313 3.93538,-1.70664 2.27747,-2.21735 -2.27747,2.21735 3.42524,-0.31266 -3.42524,0.31266 -3.93538,1.70664 2.797,1.37886 -2.797,-1.37886 -5.82107,-0.39313 2.70269,4.41543 3.49557,1.46628 3.45848,-0.17744 -3.45848,0.17744 -3.49557,-1.46628 -0.5132,3.45743 0.87025,2.97388 -0.87025,-2.97388 0.5132,-3.45743 -2.70269,-4.41543 -7.47575,-3.6224 0.03,6.24034 2.79892,3.04881 2.78062,1.15894 -2.78062,-1.15894 0.43178,3.14267 -0.43178,-3.14267 -2.79892,-3.04881 -2.03637,3.52201 0.16562,3.07862 -0.16562,-3.07862 2.03637,-3.52201 -0.03,-6.24034 -5.06222,-10.95738 -16.49743,-15.39199 -2.48994,14.59909 5.65933,10.73105 6.04593,5.02443 6.52564,0.89939 5.21562,-1.61515 3.32822,-2.82682 0.96966,-2.91468 -0.96966,2.91468 3.83084,-0.72584 -3.83084,0.72584 -3.32822,2.82682 4.42474,0.1469 2.80696,2.02943 1.17286,2.47433 -1.17286,-2.47433 -2.80696,-2.02943 -4.42474,-0.1469 -5.21562,1.61515 4.23174,3.60463 3.83423,1.12652 -3.83423,-1.12652 0.48691,3.37218 -1.74296,2.63704 1.74296,-2.63704 -0.48691,-3.37218 -4.23174,-3.60463 -6.52564,-0.89939 0.97519,5.60241 2.86172,2.66822 -2.86172,-2.66822 -1.60498,4.34118 0.89364,2.75727 -0.89364,-2.75727 -3.18679,1.76695 -1.04722,2.5982 1.04722,-2.5982 3.18679,-1.76695 1.60498,-4.34118 -0.97519,-5.60241 -6.04593,-5.02443 -0.0837,6.71295 3.09757,4.26858 2.66915,1.51204 -2.66915,-1.51204 -3.09757,-4.26858 -2.23034,4.09843 -0.24875,3.13391 0.24875,-3.13391 -2.41271,1.66656 2.41271,-1.66656 2.23034,-4.09843 0.0837,-6.71295 -5.65933,-10.73105 -5.39522,8.1917 -0.14367,7.86486 3.23002,5.76305 5.27338,3.04412 5.39528,-0.5487 2.52339,-2.17561 0.36269,-2.66939 -0.36269,2.66939 -2.52339,2.17561 2.84084,1.34452 -2.84084,-1.34452 -5.39528,0.5487 2.2241,3.44579 3.05866,1.04354 -3.05866,-1.04354 0.47183,2.75185 -0.47183,-2.75185 -2.2241,-3.44579 -5.27338,-3.04412 -0.77427,3.51075 0.77427,-3.51075 -3.23002,-5.76305 -2.9484,3.68203 -2.90379,1.32459 2.90379,-1.32459 2.9484,-3.68203 0.14367,-7.86486 -4.85831,3.22201 -2.22421,3.56409 2.22421,-3.56409 -3.49193,0.042 3.49193,-0.042 4.85831,-3.22201 5.39522,-8.1917 2.48994,-14.59909 -10.81424,-23.1265 -13.31103,20.81339 1.35302,11.95057 5.37613,9.60682 5.70158,4.05896 6.39414,0.0879 3.42382,-1.54465 -3.42382,1.54465 4.06819,2.6828 4.31947,1.00482 3.66764,-0.43232 2.42378,-1.69317 -2.42378,1.69317 -3.66764,0.43232 2.73732,2.44364 -2.73732,-2.44364 -4.31947,-1.00482 -4.06819,-2.6828 -6.39414,-0.0879 2.70734,5.23688 3.52845,2.30541 1.18965,2.83643 -1.18965,-2.83643 -3.52845,-2.30541 0.20523,4.59339 -1.11599,2.77223 1.11599,-2.77223 -0.20523,-4.59339 -2.70734,-5.23688 -5.70158,-4.05896 0.69664,5.7698 3.20452,4.11639 0.28835,3.27823 -1.35231,2.43076 1.35231,-2.43076 -0.28835,-3.27823 -3.20452,-4.11639 -1.31068,2.76505 1.31068,-2.76505 -0.69664,-5.7698 -5.37613,-9.60682 -5.14116,8.22841 -0.69807,7.69214 2.19527,3.81266 2.3713,1.79332 -2.3713,-1.79332 0.28265,3.25482 -1.77595,2.39604 1.77595,-2.39604 -0.28265,-3.25482 -2.19527,-3.81266 -2.22752,3.60827 2.22752,-3.60827 0.69807,-7.69214 -7.02651,5.01486 -1.56775,5.91832 0.95132,3.72226 2.5048,2.43188 -2.5048,-2.43188 -0.90527,2.62043 0.90527,-2.62043 -0.95132,-3.72226 -2.35064,3.02653 -0.5621,3.13321 1.08044,2.61196 -1.08044,-2.61196 0.5621,-3.13321 2.35064,-3.02653 1.56775,-5.91832 -7.51924,2.09313 -2.20427,2.94574 -3.01167,1.71175 3.01167,-1.71175 2.20427,-2.94574 -5.71609,-0.33885 -3.160059,1.66743 3.160059,-1.66743 -4.280649,-2.35511 -1.580387,-2.96589 1.580387,2.96589 4.280649,2.35511 5.71609,0.33885 7.51924,-2.09313 7.02651,-5.01486 5.14116,-8.22841 -1.35302,-11.95057 -20.78759,8.95878 -10.751562,11.52646 -0.792151,11.86889 6.867922,8.26175 7.819101,4.58172 5.61761,0.87374 4.28174,-0.68277 2.37953,-1.9335 -2.37953,1.9335 -4.28174,0.68277 3.50243,2.16448 0.9739,2.97443 -0.9739,-2.97443 -3.50243,-2.16448 -5.61761,-0.87374 3.74938,5.33254 5.2444,2.21488 3.24147,0.0613 -3.24147,-0.0613 1.69939,3.11623 2.73629,1.36091 -2.73629,-1.36091 -1.69939,-3.11623 -5.2444,-2.21488 0.1252,3.67872 1.75901,2.18218 -1.75901,-2.18218 -0.1252,-3.67872 -3.74938,-5.33254 -7.819101,-4.58172 1.407861,9.08987 4.94785,6.57207 6.54895,2.71484 3.92964,0.19844 -3.92964,-0.19844 3.22233,4.44625 2.62539,1.35696 -2.62539,-1.35696 -0.19084,3.9802 1.78823,3.11166 0.0669,2.87116 -0.0669,-2.87116 -1.78823,-3.11166 0.19084,-3.9802 -3.22233,-4.44625 -6.54895,-2.71484 1.29752,6.42363 2.19656,2.83 2.86056,1.58761 -2.86056,-1.58761 -2.19656,-2.83 -1.05136,4.87792 1.36822,2.49009 -1.36822,-2.49009 -2.42024,2.09974 2.42024,-2.09974 1.05136,-4.87792 -1.29752,-6.42363 -4.94785,-6.57207 -3.546277,5.73903 -0.513909,4.28415 1.744893,3.00458 0.118893,2.80992 -0.118893,-2.80992 -1.744893,-3.00458 0.513909,-4.28415 -5.46479,2.7549 -3.017864,3.17997 -0.347557,2.92959 0.347557,-2.92959 -3.438327,1.22992 -1.771897,2.48923 1.771897,-2.48923 3.438327,-1.22992 3.017864,-3.17997 -3.333798,-0.42896 3.333798,0.42896 5.46479,-2.7549 3.546277,-5.73903 -1.407861,-9.08987 -6.867922,-8.26175 -6.890978,7.03927 -1.008761,5.38637 1.499594,3.71476 2.284297,2.01054 -2.284297,-2.01054 -1.499594,-3.71476 -3.602319,3.38246 -0.440152,3.96681 1.905074,2.81576 -1.905074,-2.81576 0.440152,-3.96681 3.602319,-3.38246 1.008761,-5.38637 -9.110945,1.40298 -5.24538,4.60417 -0.710918,3.53939 0.710918,-3.53939 -5.701352,1.55536 -3.118553,3.4102 -0.41781,3.78327 1.391472,2.43778 -1.391472,-2.43778 0.41781,-3.78327 3.118553,-3.4102 -4.143703,-1.1486 -3.28725,0.64241 3.28725,-0.64241 -2.091247,-2.36536 -0.804861,-2.59754 0.804861,2.59754 2.091247,2.36536 4.143703,1.1486 5.701352,-1.55536 5.24538,-4.60417 -4.651763,-1.53397 -4.082846,0.51506 4.082846,-0.51506 -1.942692,-2.52013 1.942692,2.52013 4.651763,1.53397 9.110945,-1.40298 6.890978,-7.03927 0.792151,-11.86889 -11.718183,4.26306 -4.670923,6.03361 0.325785,4.31329 1.818474,3.0638 -1.818474,-3.0638 -2.121873,3.07123 -0.169079,3.16582 1.242784,2.56146 -1.242784,-2.56146 0.169079,-3.16582 2.121873,-3.07123 -0.325785,-4.31329 -3.901981,1.52783 -2.237032,1.97208 2.237032,-1.97208 -3.183059,-0.35033 3.183059,0.35033 3.901981,-1.52783 4.670923,-6.03361 -7.364717,-1.2161 -5.14135,2.28761 -2.90967,3.46405 -2.999304,1.05365 2.999304,-1.05365 2.90967,-3.46405 -3.62629,-0.41773 3.62629,0.41773 5.14135,-2.28761 -3.484376,-3.20002 3.484376,3.20002 7.364717,1.2161 11.718183,-4.26306 10.751562,-11.52646 -20.30005,-0.48133 -13.289363,6.66566 -3.778685,6.11421 0.789995,3.83823 2.327649,2.70221 -0.114646,2.92767 0.114646,-2.92767 -2.327649,-2.70221 -0.789995,-3.83823 -5.052009,2.20119 -2.453259,2.57653 2.453259,-2.57653 -4.868547,-1.05217 -4.115039,0.7017 -3.001265,-0.90279 3.001265,0.90279 4.115039,-0.7017 -2.382826,-2.26011 -2.766867,-1.08305 2.766867,1.08305 2.382826,2.26011 4.868547,1.05217 5.052009,-2.20119 3.778685,-6.11421 -12.562817,-1.05751 -9.252011,3.22577 -5.94925,4.79689 -1.331432,5.62306 2.40727,4.68979 2.676286,2.26016 3.129196,0.43803 -3.129196,-0.43803 -2.676286,-2.26016 -0.512057,3.74249 1.047766,2.63209 -1.047766,-2.63209 0.512057,-3.74249 -2.40727,-4.68979 -2.919391,3.7158 0.285532,3.14218 -0.285532,-3.14218 2.919391,-3.7158 1.331432,-5.62306 -5.431325,0.48198 -4.102723,2.30329 4.102723,-2.30329 -3.268482,-1.55838 -3.051648,0.20163 3.051648,-0.20163 3.268482,1.55838 5.431325,-0.48198 5.94925,-4.79689 -7.595916,0.11381 -4.480086,2.50335 -3.820589,0.37062 -2.600587,1.93954 2.600587,-1.93954 3.820589,-0.37062 4.480086,-2.50335 -3.747666,-1.75451 -3.660301,-0.12861 3.660301,0.12861 -1.446399,-2.34969 1.446399,2.34969 3.747666,1.75451 7.595916,-0.11381 9.252011,-3.22577 -8.830607,-5.17931 -8.235557,-1.04129 -4.568789,1.77679 -3.844185,-0.27253 -2.331221,-2.00291 2.331221,2.00291 3.844185,0.27253 4.568789,-1.77679 -5.103976,-2.66888 -4.075948,0.54422 4.075948,-0.54422 -1.735402,-2.18311 1.735402,2.18311 5.103976,2.66888 8.235557,1.04129 -2.556469,-6.08639 -3.152148,-2.11488 -0.89382,-2.83688 0.89382,2.83688 3.152148,2.11488 1.059229,-4.11839 2.210834,-2.3888 -2.210834,2.3888 -1.059229,4.11839 2.556469,6.08639 8.830607,5.17931 12.562817,1.05751 13.289363,-6.66566 -12.651616,-8.17376 -10.740562,-2.36437 -6.345081,1.29381 -2.961539,2.20782 -3.165683,0.99403 3.165683,-0.99403 2.961539,-2.20782 -4.508889,-0.92123 4.508889,0.92123 6.345081,-1.29381 -4.873899,-3.27173 -4.705614,-0.65563 -3.133457,1.64504 -3.1764,0.12024 3.1764,-0.12024 3.133457,-1.64504 -2.834177,-2.06464 -3.161515,-0.56179 3.161515,0.56179 -1.358311,-2.41277 1.358311,2.41277 2.834177,2.06464 4.705614,0.65563 -2.398309,-3.98931 2.398309,3.98931 4.873899,3.27173 10.740562,2.36437 c 12.393311,6.29838 0.379073,-0.2121 12.651616,8.17376 l 20.30005,0.48133 20.78759,-8.95878 13.31103,-20.81339 0,-39.846851"
     style="fill:none;stroke:#969696;stroke-width:1;stroke-linecap:butt;stroke-linejoin:miter;stroke-opacity:1;stroke-miterlimit:4;stroke-dasharray:none"
     inkscape:connector-curvature="0"
     sodipodi:nodetypes="ccccccccccccccccccccccccccccccccccccccccccccccccccccccccccccccccccccccccccccccccccccccccccccccccccccccccccccccccccccccccccccccccccccccccccccccccccccccccccccccccccccccccccccccccccccccccccccccccccccccccccccccccccccccccccccccccccccccccccccccccccccccccccccccccccccccccccccccccccccccccccccccccccccccccccccccccccccccccccccccccccccccccccccccccccccccccccccccccccccccccccccccccccccccccccccccccccccccccccccccccccccccccccccccccccccccccccccccccccccccccccccccccccccccccccccccccccccccccccccccccccccccccccccccccccccccccccccccccccccccccccccccccccccccccccccccccccccccccccccccccccccccccccccccccccccccccccccccccccccccccccccccccccccccccccccccccccccccccccc" />
  <path
     style="fill:url(#radialGradient3926);fill-opacity:1;stroke:#000000;stroke-width:0.2275576;stroke-miterlimit:4;stroke-opacity:1;stroke-dasharray:none"
     d="m 138.0998,62.935333 c -1.91308,0 -7.65231,-0.415614 -9.56539,-0.415614 -0.79711,0 -1.61802,0.168002 -2.39133,0 -1.17789,-0.255892 -2.21106,-0.876379 -3.34789,-1.24684 -5.74738,-1.87292 -2.94501,-0.256947 -7.65229,-3.324907 -3.89093,-2.535896 -0.74619,-0.990379 -4.78269,-2.49368 -0.32766,-0.122028 -0.65993,-0.243779 -0.95654,-0.415613 -0.18759,-0.108678 -0.31884,-0.554152 -0.47827,-0.415614 -0.22545,0.195923 0.0773,0.562424 0,0.831227 -0.0865,0.300531 -0.42785,0.52456 -0.47827,0.831227 -0.11272,0.685727 0.23443,1.416009 0,2.078067 -0.20853,0.588944 -1.85681,3.995865 -3.34788,4.571747 -0.30622,0.11827 -6.182115,0.829305 -6.217487,0.831227 -1.432013,0.07778 -2.869613,0 -4.304418,0 -1.594228,0 -3.188457,0 -4.782685,0 -0.797115,0 -1.603499,0.105332 -2.391344,0 -8.228109,-1.100031 0.558654,-0.831227 -7.652298,-0.831227 -0.637692,0 -1.330344,-0.225063 -1.913074,0 -0.932822,0.360275 -1.594229,1.108302 -2.391343,1.662453 -0.516824,0.359295 -3.524497,2.485702 -4.304417,2.909293 -0.604589,0.328366 -1.261563,0.5796 -1.913075,0.831227 -1.506472,0.58183 -2.273154,1.056151 -3.826148,0.831227 -2.319939,-0.336003 -3.002122,-1.937745 -3.347881,-3.74052 -0.124434,-0.648795 0.313446,-0.902843 -0.478269,-1.246841 -0.142592,-0.06195 -0.318846,0 -0.478268,0 -0.478269,0 -0.956537,0 -1.434806,0 -2.553772,0 -4.679659,0.180318 -7.174029,-0.831226 -1.882495,-0.763411 -4.557403,-3.773637 -5.739223,-4.98736 -0.804283,-0.825996 -1.677307,-1.60726 -2.391343,-2.49368 -2.70245,-3.354883 0.524276,-0.375634 -1.913075,-2.493681 -0.159422,-0.138537 -0.26438,-0.353658 -0.478268,-0.415613 -0.302484,-0.08762 -0.637691,0 -0.956537,0 -0.318845,0 -0.671354,-0.123912 -0.956537,0 -0.403312,0.175238 -0.637692,0.554151 -0.956538,0.831227 -0.891031,0.774301 -2.073195,2.018953 -3.34788,2.49368 -0.60417,0.225009 -1.27141,0.291701 -1.913074,0.415613 -1.587086,0.306482 -3.18311,0.578495 -4.782687,0.831227 -0.954088,0.150745 -1.921405,0.239044 -2.869611,0.415613 -1.285452,0.239368 -2.545181,0.574345 -3.826149,0.831227 -2.0091,0.402899 -2.163797,0.253396 -3.826148,0.831226 -0.318846,0.138539 -0.637692,0.277076 -0.956537,0.415614 0,0.138537 0.112729,0.317653 0,0.415613 -0.25207,0.219048 -0.637692,0.277075 -0.956537,0.415614 -0.318846,0.138537 -0.606981,0.35486 -0.956539,0.415613 -0.468981,0.08151 -0.963044,-0.06833 -1.434805,0 -0.49728,0.07202 -0.940456,0.329696 -1.434806,0.415613 -0.170528,0.02964 -1.699951,-0.0926 -1.913074,0 -0.201656,0.08762 -0.276613,0.327994 -0.478269,0.415614 -0.217309,0.09442 -3.2607061,0 -3.34788,0 -0.9565372,0 -1.9130744,0 -2.8696115,0 -0.4782687,0 -0.9602305,0.05155 -1.4348059,0 C 1.9431506,62.016486 1.1400537,61.882558 0.3584306,61.688492 0.64914713,127.1332 0.4339678,188.87285 0.4339678,249.62696 l 136.7092922,-0.0812 z"
     id="path3918"
     inkscape:connector-curvature="0"
     sodipodi:nodetypes="cssssssssssscsssssssssscsssssssssssssssccsssccscssscccc" />
  <path
     style="fill:#df8f87;fill-opacity:1;stroke:#9696ff;stroke-width:1.5;stroke-linecap:butt;stroke-linejoin:miter;stroke-miterlimit:4;stroke-opacity:1;stroke-dasharray:none;stroke-dashoffset:0"
     d="m 88.710621,39.77066 72.280719,0 0,-19.63371 29.68674,22.57876 -23.23308,18.65204 -1.29073,-13.7436 -74.862179,4.90843 z"
     id="path3930"
     inkscape:connector-curvature="0" />
</svg>
