<?xml version="1.0" encoding="utf-8" standalone="no"?>
<!DOCTYPE svg PUBLIC "-//W3C//DTD SVG 1.1//EN"
  "http://www.w3.org/Graphics/SVG/1.1/DTD/svg11.dtd">
<!-- Created with matplotlib (https://matplotlib.org/) -->
<svg height="288pt" version="1.1" viewBox="0 0 432 288" width="432pt" xmlns="http://www.w3.org/2000/svg" xmlns:xlink="http://www.w3.org/1999/xlink">
 <defs>
  <style type="text/css">
*{stroke-linecap:butt;stroke-linejoin:round;}
  </style>
 </defs>
 <g id="figure_1">
  <g id="patch_1">
   <path d="M 0 288 
L 432 288 
L 432 0 
L 0 0 
z
" style="fill:#ffffff;"/>
  </g>
  <g id="axes_1">
   <g id="line2d_1">
    <path clip-path="url(#p6a3322d61c)" d="M 29.454545 101.450821 
L 35.315044 92.563542 
L 39.710417 86.226105 
L 44.105791 80.232574 
L 48.501165 74.636148 
L 52.896539 69.486502 
L 55.826788 66.324363 
L 58.757037 63.393678 
L 61.687286 60.706012 
L 64.617535 58.271972 
L 67.547784 56.101164 
L 70.478034 54.202155 
L 73.408283 52.582441 
L 76.338532 51.248413 
L 79.268781 50.205336 
L 82.19903 49.457327 
L 85.129279 49.007337 
L 88.059528 48.857143 
L 90.989778 49.007337 
L 93.920027 49.457327 
L 96.850276 50.205336 
L 99.780525 51.248413 
L 102.710774 52.582441 
L 105.641023 54.202155 
L 108.571272 56.101164 
L 111.501522 58.271972 
L 114.431771 60.706012 
L 117.36202 63.393678 
L 120.292269 66.324363 
L 123.222518 69.486502 
L 127.617892 74.636148 
L 132.013266 80.232574 
L 136.408639 86.226105 
L 140.804013 92.563542 
L 146.664511 101.450821 
L 153.990134 113.064531 
L 177.432127 150.754223 
L 183.292626 159.526591 
L 187.687999 165.755502 
L 192.083373 171.622411 
L 196.478747 177.075243 
L 200.874121 182.065597 
L 203.80437 185.113513 
L 206.734619 187.924076 
L 209.664868 190.486193 
L 212.595117 192.789754 
L 215.525366 194.825666 
L 218.455615 196.585896 
L 221.385865 198.063497 
L 224.316114 199.252636 
L 227.246363 200.148621 
L 230.176612 200.747916 
L 233.106861 201.048156 
L 236.03711 201.048156 
L 238.96736 200.747916 
L 241.897609 200.148621 
L 244.827858 199.252636 
L 247.758107 198.063497 
L 250.688356 196.585896 
L 253.618605 194.825666 
L 256.548854 192.789754 
L 259.479104 190.486193 
L 262.409353 187.924076 
L 265.339602 185.113513 
L 268.269851 182.065597 
L 272.665225 177.075243 
L 277.060598 171.622411 
L 281.455972 165.755502 
L 285.851346 159.526591 
L 291.711844 150.754223 
L 297.572342 141.575246 
L 306.36309 127.362236 
L 319.549211 106.042575 
L 321.014336 103.73622 
L 321.014336 103.73622 
" style="fill:none;stroke:#1f77b4;stroke-linecap:square;stroke-width:1.5;"/>
   </g>
   <g id="line2d_2">
    <path clip-path="url(#p6a3322d61c)" d="M 29.454545 124.971429 
L 402.545455 124.971429 
" style="fill:none;stroke:#000000;stroke-dasharray:1.5,2.475;stroke-dashoffset:0;stroke-width:1.5;"/>
   </g>
   <g id="line2d_3">
    <path clip-path="url(#p6a3322d61c)" d="M 88.059528 220.114286 
L 88.059528 48.857143 
" style="fill:none;stroke:#008000;stroke-dasharray:1.5,2.475;stroke-dashoffset:0;stroke-width:1.5;"/>
   </g>
   <g id="line2d_4">
    <path clip-path="url(#p6a3322d61c)" d="M 29.454545 189.871884 
L 33.849919 186.275766 
L 39.710417 181.165748 
L 45.570916 175.769697 
L 54.361663 167.326364 
L 71.943158 150.287446 
L 77.803656 144.891395 
L 83.664155 139.781377 
L 88.059528 136.185259 
L 92.454902 132.827403 
L 96.850276 129.737616 
L 101.24565 126.943321 
L 105.641023 124.469321 
L 110.036397 122.337576 
L 112.966646 121.116029 
L 115.896895 120.059891 
L 118.827144 119.173331 
L 121.757394 118.459847 
L 124.687643 117.922256 
L 127.617892 117.562679 
L 130.548141 117.382535 
L 133.47839 117.382535 
L 136.408639 117.562679 
L 139.338888 117.922256 
L 142.269138 118.459847 
L 145.199387 119.173331 
L 148.129636 120.059891 
L 151.059885 121.116029 
L 153.990134 122.337576 
L 158.385508 124.469321 
L 162.780882 126.943321 
L 167.176255 129.737616 
L 171.571629 132.827403 
L 175.967003 136.185259 
L 180.362377 139.781377 
L 186.222875 144.891395 
L 192.083373 150.287446 
L 200.874121 158.730779 
L 218.455615 175.769697 
L 224.316114 181.165748 
L 230.176612 186.275766 
L 234.571986 189.871884 
L 238.96736 193.22974 
L 243.362733 196.319527 
L 247.758107 199.113822 
L 252.153481 201.587822 
L 256.548854 203.719567 
L 259.479104 204.941114 
L 262.409353 205.997252 
L 265.339602 206.883812 
L 268.269851 207.597296 
L 271.2001 208.134887 
L 274.130349 208.494464 
L 277.060598 208.674608 
L 279.990848 208.674608 
L 282.921097 208.494464 
L 285.851346 208.134887 
L 288.781595 207.597296 
L 291.711844 206.883812 
L 294.642093 205.997252 
L 297.572342 204.941114 
L 300.502592 203.719567 
L 304.897965 201.587822 
L 309.293339 199.113822 
L 313.688713 196.319527 
L 318.084087 193.22974 
L 321.014336 191.019161 
L 321.014336 191.019161 
" style="fill:none;stroke:#ff7f0e;stroke-linecap:square;stroke-width:1.5;"/>
   </g>
   <g id="line2d_5">
    <path clip-path="url(#p6a3322d61c)" d="M 29.454545 163.028571 
L 367.568182 163.028571 
" style="fill:none;stroke:#000000;stroke-dasharray:1.5,2.475;stroke-dashoffset:0;stroke-width:1.5;"/>
   </g>
   <g id="line2d_6">
    <path clip-path="url(#p6a3322d61c)" d="M 132.013266 239.142857 
L 132.013266 117.36 
" style="fill:none;stroke:#008000;stroke-dasharray:1.5,2.475;stroke-dashoffset:0;stroke-width:1.5;"/>
   </g>
   <g id="patch_2">
    <path d="M 86.059528 124.971429 
Q 86.059528 92.914139 86.059528 60.85685 
L 82.059528 60.85685 
Q 85.059528 54.856996 88.059528 48.857143 
Q 91.059528 54.856996 94.059528 60.85685 
L 90.059528 60.85685 
Q 90.059528 92.914139 90.059528 124.971429 
L 86.059528 124.971429 
z
" style="fill:#808080;stroke:#000000;stroke-linecap:round;"/>
   </g>
   <g id="text_1">
    <!-- $A_0$ -->
    <defs>
     <path d="M 36.8125 72.90625 
L 48 72.90625 
L 61.53125 0 
L 51.21875 0 
L 48.1875 18.703125 
L 15.375 18.703125 
L 5.078125 0 
L -5.328125 0 
z
M 40.375 63.1875 
L 19.921875 26.90625 
L 46.6875 26.90625 
z
" id="DejaVuSans-Oblique-65"/>
     <path d="M 31.78125 66.40625 
Q 24.171875 66.40625 20.328125 58.90625 
Q 16.5 51.421875 16.5 36.375 
Q 16.5 21.390625 20.328125 13.890625 
Q 24.171875 6.390625 31.78125 6.390625 
Q 39.453125 6.390625 43.28125 13.890625 
Q 47.125 21.390625 47.125 36.375 
Q 47.125 51.421875 43.28125 58.90625 
Q 39.453125 66.40625 31.78125 66.40625 
z
M 31.78125 74.21875 
Q 44.046875 74.21875 50.515625 64.515625 
Q 56.984375 54.828125 56.984375 36.375 
Q 56.984375 17.96875 50.515625 8.265625 
Q 44.046875 -1.421875 31.78125 -1.421875 
Q 19.53125 -1.421875 13.0625 8.265625 
Q 6.59375 17.96875 6.59375 36.375 
Q 6.59375 54.828125 13.0625 64.515625 
Q 19.53125 74.21875 31.78125 74.21875 
z
" id="DejaVuSans-48"/>
    </defs>
    <g transform="translate(91.557256 90.225536)scale(0.12 -0.12)">
     <use transform="translate(0 0.09375)" xlink:href="#DejaVuSans-Oblique-65"/>
     <use transform="translate(68.408203 -16.3125)scale(0.7)" xlink:href="#DejaVuSans-48"/>
    </g>
   </g>
   <g id="patch_3">
    <path d="M 390.886364 274.079692 
Q 390.886364 201.0863 390.886364 128.092908 
" style="fill:none;stroke:#000000;stroke-linecap:round;"/>
    <path d="M 392.886364 270.079692 
L 390.886364 274.079692 
L 388.886364 270.079692 
" style="fill:none;stroke:#000000;stroke-linecap:round;"/>
    <path d="M 388.886364 132.092908 
L 390.886364 128.092908 
L 392.886364 132.092908 
" style="fill:none;stroke:#000000;stroke-linecap:round;"/>
   </g>
   <g id="text_2">
    <!-- $B_0$ -->
    <defs>
     <path d="M 16.890625 72.90625 
L 42.09375 72.90625 
Q 52.34375 72.90625 57.421875 69.09375 
Q 62.5 65.28125 62.5 57.625 
Q 62.5 50.59375 58.125 45.484375 
Q 53.765625 40.375 46.6875 39.3125 
Q 52.734375 37.9375 55.765625 34.078125 
Q 58.796875 30.21875 58.796875 23.78125 
Q 58.796875 12.796875 50.65625 6.390625 
Q 42.53125 0 28.421875 0 
L 2.6875 0 
z
M 19.28125 34.8125 
L 14.109375 8.109375 
L 29.984375 8.109375 
Q 38.921875 8.109375 43.75 12.203125 
Q 48.578125 16.3125 48.578125 23.78125 
Q 48.578125 29.546875 45.375 32.171875 
Q 42.1875 34.8125 35.109375 34.8125 
z
M 25.09375 64.796875 
L 20.796875 42.828125 
L 35.5 42.828125 
Q 43.359375 42.828125 47.78125 46.234375 
Q 52.203125 49.65625 52.203125 55.71875 
Q 52.203125 60.453125 49.21875 62.625 
Q 46.234375 64.796875 39.703125 64.796875 
z
" id="DejaVuSans-Oblique-66"/>
    </defs>
    <g transform="translate(394.384091 201.085714)scale(0.12 -0.12)">
     <use transform="translate(0 0.09375)" xlink:href="#DejaVuSans-Oblique-66"/>
     <use transform="translate(68.603516 -16.3125)scale(0.7)" xlink:href="#DejaVuSans-48"/>
    </g>
   </g>
   <g id="patch_4">
    <path d="M 84.941971 218.211429 
Q 58.757476 218.211429 31.454946 218.211429 
" style="fill:none;stroke:#000000;stroke-linecap:round;"/>
    <path d="M 80.941971 216.211429 
L 84.941971 218.211429 
L 80.941971 220.211429 
" style="fill:none;stroke:#000000;stroke-linecap:round;"/>
   </g>
   <g id="text_3">
    <!-- $\phi_0$ -->
    <defs>
     <path d="M 46.734375 75.984375 
L 42.78125 55.8125 
Q 52.546875 55.8125 57.5625 48.34375 
Q 62.75 40.71875 60.15625 27.296875 
Q 57.515625 13.875 49.359375 6.25 
Q 41.453125 -1.21875 31.6875 -1.21875 
L 27.875 -20.796875 
L 18.953125 -20.796875 
L 22.75 -1.21875 
Q 13.03125 -1.21875 7.953125 6.25 
Q 2.78125 13.875 5.421875 27.296875 
Q 8.015625 40.71875 16.15625 48.34375 
Q 24.125 55.8125 33.84375 55.8125 
L 37.796875 75.984375 
z
M 33.25 6.78125 
Q 38.765625 6.78125 43.5 11.8125 
Q 48.6875 17.4375 50.6875 27.296875 
Q 52.640625 37.0625 49.515625 42.78125 
Q 46.734375 47.796875 41.21875 47.796875 
z
M 24.3125 6.78125 
L 32.28125 47.796875 
Q 26.8125 47.796875 22.078125 42.78125 
Q 16.75 37.0625 14.890625 27.296875 
Q 13.03125 17.4375 16.0625 11.8125 
Q 18.796875 6.78125 24.3125 6.78125 
z
" id="DejaVuSans-Oblique-981"/>
    </defs>
    <g transform="translate(51.917037 214.405714)scale(0.12 -0.12)">
     <use transform="translate(0 0.015625)" xlink:href="#DejaVuSans-Oblique-981"/>
     <use transform="translate(65.966797 -16.390625)scale(0.7)" xlink:href="#DejaVuSans-48"/>
    </g>
   </g>
   <g id="patch_5">
    <path d="M 130.013266 163.028571 
Q 130.013266 146.194139 130.013266 129.359707 
L 126.013266 129.359707 
Q 129.013266 123.359854 132.013266 117.36 
Q 135.013266 123.359854 138.013266 129.359707 
L 134.013266 129.359707 
Q 134.013266 146.194139 134.013266 163.028571 
L 130.013266 163.028571 
z
" style="fill:#808080;stroke:#000000;stroke-linecap:round;"/>
   </g>
   <g id="text_4">
    <!-- $A_1$ -->
    <defs>
     <path d="M 12.40625 8.296875 
L 28.515625 8.296875 
L 28.515625 63.921875 
L 10.984375 60.40625 
L 10.984375 69.390625 
L 28.421875 72.90625 
L 38.28125 72.90625 
L 38.28125 8.296875 
L 54.390625 8.296875 
L 54.390625 0 
L 12.40625 0 
z
" id="DejaVuSans-49"/>
    </defs>
    <g transform="translate(135.510993 143.505536)scale(0.12 -0.12)">
     <use transform="translate(0 0.09375)" xlink:href="#DejaVuSans-Oblique-65"/>
     <use transform="translate(68.408203 -16.3125)scale(0.7)" xlink:href="#DejaVuSans-49"/>
    </g>
   </g>
   <g id="patch_6">
    <path d="M 355.909091 274.078531 
Q 355.909091 220.113823 355.909091 166.149116 
" style="fill:none;stroke:#000000;stroke-linecap:round;"/>
    <path d="M 357.909091 270.078531 
L 355.909091 274.078531 
L 353.909091 270.078531 
" style="fill:none;stroke:#000000;stroke-linecap:round;"/>
    <path d="M 353.909091 170.149116 
L 355.909091 166.149116 
L 357.909091 170.149116 
" style="fill:none;stroke:#000000;stroke-linecap:round;"/>
   </g>
   <g id="text_5">
    <!-- $B_1$ -->
    <g transform="translate(359.406818 220.114286)scale(0.12 -0.12)">
     <use transform="translate(0 0.09375)" xlink:href="#DejaVuSans-Oblique-66"/>
     <use transform="translate(68.603516 -16.3125)scale(0.7)" xlink:href="#DejaVuSans-49"/>
    </g>
   </g>
   <g id="patch_7">
    <path d="M 128.895261 237.24 
Q 80.732818 237.24 31.45234 237.24 
" style="fill:none;stroke:#000000;stroke-linecap:round;"/>
    <path d="M 124.895261 235.24 
L 128.895261 237.24 
L 124.895261 239.24 
" style="fill:none;stroke:#000000;stroke-linecap:round;"/>
   </g>
   <g id="text_6">
    <!-- $\phi_1$ -->
    <g transform="translate(73.893906 233.434286)scale(0.12 -0.12)">
     <use transform="translate(0 0.015625)" xlink:href="#DejaVuSans-Oblique-981"/>
     <use transform="translate(65.966797 -16.390625)scale(0.7)" xlink:href="#DejaVuSans-49"/>
    </g>
   </g>
  </g>
 </g>
 <defs>
  <clipPath id="p6a3322d61c">
   <rect height="266.4" width="410.4" x="10.8" y="10.8"/>
  </clipPath>
 </defs>
</svg>
